<mxfile host="65bd71144e">
    <diagram id="HIP3nbAZw_EuaXWnEj3U" name="Page-1">
        <mxGraphModel dx="1086" dy="743" grid="1" gridSize="10" guides="1" tooltips="1" connect="1" arrows="1" fold="1" page="1" pageScale="1" pageWidth="850" pageHeight="1100" math="0" shadow="0">
            <root>
                <mxCell id="0"/>
                <mxCell id="1" parent="0"/>
                <mxCell id="7" value="http://ics2o.mths.ca" style="swimlane;whiteSpace=wrap;html=1;" parent="1" vertex="1">
                    <mxGeometry x="20" y="100" width="760" height="480" as="geometry"/>
                </mxCell>
                <mxCell id="8" value="&lt;font style=&quot;font-size: 18px;&quot;&gt;Volume of a pyramid with JS&amp;nbsp;&lt;/font&gt;" style="rounded=0;whiteSpace=wrap;html=1;" vertex="1" parent="7">
                    <mxGeometry y="20" width="760" height="60" as="geometry"/>
                </mxCell>
                <mxCell id="9" value="Formula&lt;br&gt;V = (l&amp;nbsp; x&amp;nbsp; w x&amp;nbsp; h) / 3" style="text;html=1;align=center;verticalAlign=middle;resizable=0;points=[];autosize=1;strokeColor=none;fillColor=none;fontSize=18;" vertex="1" parent="7">
                    <mxGeometry x="25" y="90" width="170" height="60" as="geometry"/>
                </mxCell>
                <mxCell id="12" value="Enter integers for dimensions" style="text;html=1;align=center;verticalAlign=middle;resizable=0;points=[];autosize=1;strokeColor=none;fillColor=none;fontSize=18;" vertex="1" parent="7">
                    <mxGeometry x="20" y="150" width="260" height="40" as="geometry"/>
                </mxCell>
                <mxCell id="16" value="" style="rounded=1;whiteSpace=wrap;html=1;fontSize=18;" vertex="1" parent="7">
                    <mxGeometry x="110" y="200" width="150" height="30" as="geometry"/>
                </mxCell>
                <mxCell id="17" value="" style="rounded=1;whiteSpace=wrap;html=1;fontSize=18;" vertex="1" parent="7">
                    <mxGeometry x="110" y="250" width="150" height="30" as="geometry"/>
                </mxCell>
                <mxCell id="18" value="" style="rounded=1;whiteSpace=wrap;html=1;fontSize=18;" vertex="1" parent="7">
                    <mxGeometry x="110" y="300" width="150" height="30" as="geometry"/>
                </mxCell>
                <mxCell id="22" value="Length" style="text;html=1;align=center;verticalAlign=middle;resizable=0;points=[];autosize=1;strokeColor=none;fillColor=none;fontSize=18;" vertex="1" parent="7">
                    <mxGeometry x="20" y="190" width="80" height="40" as="geometry"/>
                </mxCell>
                <mxCell id="23" value="Width" style="text;html=1;align=center;verticalAlign=middle;resizable=0;points=[];autosize=1;strokeColor=none;fillColor=none;fontSize=18;" vertex="1" parent="7">
                    <mxGeometry x="25" y="245" width="70" height="40" as="geometry"/>
                </mxCell>
                <mxCell id="24" value="Height" style="text;html=1;align=center;verticalAlign=middle;resizable=0;points=[];autosize=1;strokeColor=none;fillColor=none;fontSize=18;" vertex="1" parent="7">
                    <mxGeometry x="25" y="295" width="80" height="40" as="geometry"/>
                </mxCell>
                <mxCell id="25" value="Calculate" style="rounded=1;whiteSpace=wrap;html=1;fontSize=18;" vertex="1" parent="7">
                    <mxGeometry x="30" y="360" width="120" height="45" as="geometry"/>
                </mxCell>
                <mxCell id="26" value="" style="shape=image;verticalLabelPosition=bottom;labelBackgroundColor=default;verticalAlign=top;aspect=fixed;imageAspect=0;image=data:image/png,iVBORw0KGgoAAAANSUhEUgAAAOsAAAEDCAYAAADUavOOAAAAAXNSR0IArs4c6QAAAARnQU1BAACxjwv8YQUAAAAJcEhZcwAADsMAAA7DAcdvqGQAADc6SURBVHhe7d0HtCRVtT5wlj5dL/l8/td6hBnyCIgkFRTFhCgqgqggSJCgIA5IEEYFQZIBUYYgoghIkBxMMIAiSBLBQRxGBAdFVGAMqIA56/n7O3RB03Tuqq6q7vOt1Yuhb917+3bXd3b69t5LhISEhFogkTUhoSZIZE1IqAkSWRMSaoJE1oSEmiCRNSGhJkhkTUioCRJZExJqgkTWhISaIJE1IaEmSGRNSKgJElknGP/85z/DX/7yl3D55ZeHG264IfzmN79pfCWhjkhknWAg6sKFC8N6660XXvOa14Qbb7wx/PnPf258NaFuSGSdUPzjH/8I999/f9h///3DsssuG5Zccslw5JFHhnvuuadxRULdkMg6ofjjH/8YvvrVr4ZZs2ZFonq86EUvCvPmzQt//etfG1cl1AmJrBOK++67L+yyyy6PEDV7vPOd7wx33nln46qEOiGRdQLx4IMPhvPPPz+sssoqYfbs2WHmzJmPkHXNNdcMn/nMZ8Kf/vSnxtUJdUEi6wTi1ltvDdtuu214/vOfHxYtWhRWXnnlR8i6zDLLhF133TXcdNNNjasT6oJE1gnDT3/603D00UeH5zznOeH9739/+Nvf/hZJO2PGjMdY14985COplFMzJLJOECSOrrrqqvDa1742vPrVr34kNp07d2545jOf+RjrusUWW4Rrrrkmfj2hHkhknSD86Ec/Coceemh4yUteEj7xiU80ng3he9/7Xthggw2iO6yMw8quscYa4b3vfW/4+c9/3rgqoepIZJ0QSBhdfPHFYbPNNotZ4LvvvrvxlYe/tuGGG4aXv/zl0QX2WGeddaL1VcpJqAcSWScE3/3ud8O73vWu8IpXvCJmgltBwbTDDjuETTbZJFpe/3XtXnvtFRYvXty4KqHKSGSdAPzud78Ln/zkJyP55syZE37xi180vvIwqJa23HLL8PrXvz684x3vCBtvvHF44xvfGPbYY49I3JNOOikJJWqARNYJwLe+9a2w3XbbdXRryQxf/OIXRzdYsmn77bcPW2+9dfjQhz4UNtpoo7D55psnGWINkMhac5AVIuMLX/jCSD7/34qnP/3pMQu8+uqrRxf5oIMOiuQ94ogjInnFr8o9yjw6dRKqiUTWmoP+V1LpTW96U/x3O2Rk9TjvvPPCOeecE13h97znPeEb3/hGeNWrXhV1w/fee29sAEioJhJZawyx6tvf/vbYAnfGGWd0jDtbyXrzzTeHt73tbTFuVWu94IILYlnn3e9+d1vLnFANJLLWGF/4whei+4t4CxYsaDz7eCDruuuuG5Zffvnw0Y9+NHz/+9+PrjNreuaZZ8b/F8Ouuuqq4etf/3oibEWRyFpTyPjuuOOOsX564YUXhj/84Q+NrzweyCqRpF3uAx/4QOzI+fznPx+zx5k1veKKK8JKK60Uhf++nlA9JLLWFKeffnq0llRIvVrekFVcy3Lut99+UdF0yy23hLe85S3RFfb9NMUE/pJNyJ90w9VDImvNIC794Q9/GF75ylfGJNHVV1/d1arCvvvuG4499tjwvOc9L7z1rW+NLjPLzCXmRnOFjXv55je/GZ71rGfFjp3bbrstZocTqoNE1pqBxfvYxz4WXdoPf/jD4Wc/+1njK51hDtNdd90V67DqsfPnz49E5Aor4eyzzz6NK0N0i1nsT3/600k3XDEkstYIrB+iEeWTC7KQgyiPdt5556hkYo2BmIIEUeyakf7222+P0kQJJ9clZVN1kMhaE6h/Svyoja6wwgpx2sNDDz3U+Gp/IIYgObzkkkvi/4tT9bWKUy+66KL4HBx//PHRZdYPq/aaUA0kstYEv//972OvqpiSO8tF/fvf/974ancYScrt1T636aabhs997nPxeVYTcZFVE0CGTEvs9/h6Gl9aDSSy1gCsKveUCB+xEGgQ95S7KylFUmhqBOF+BiNgaIXFrhJVmdzwtNNOiyJ/ySkdPQnlI5G1BmBVzz333LDWWmtFAcSgMOLF/GDZ35e97GWPISvX+qijjoqTJEzuzw4B6ihERWLJpoTykchaAyip0P6KIymMBoUph9zcE044IZZ8xKlZvMvF/drXvhYFEWqwmXqJhdXMzhVWyvEaEspFImvFoR563HHHhfXXXz8KIHrVVNuBKAJZv/jFL0YRhERT1hKHlD/4wQ/i3CYW+Le//W18HpSJxLkveMELojwxyRDLRSJrxUFoL4OLZOLLYZCRlZvLQrOgzaqnX/7yl7G9ziA1nTvc7gz+X232da97Xbj22msbzyaUgUTWCuMnP/lJtGj0v4QQw1q2jKy6bUgM1VstqcpgRpNMs66cww8//DFiiF/96ldxCoXXcPDBB4df//rXja8kjBuJrBXGZz/72eieItgoGdmMrNxdo1xae19lm7nFL33pS6NAwnXNYNEltsgbsxptwviRyFpRGCu69957x24Z2Vi10mEhMcUqyvySE5oZ3Eo6KzcOOeSQSOyvfOUrj1mvwZoSYSAz0iYZYjlIZK0glE8QlJWzSKrV0g0KCarLLrssZoCNcmGtka8ZyHn99deHFVdcMSqXqJuaIcYV69INmzSRMH4kslYQd9xxR+xVldRRPskTYl/a3xNPPLHxzMPgCkssyfz6vV5DM5D5S1/6Uhy6xjKz0mkEzHiRyFoxqHtqEM8GoOU90/dTn/pUFEaotbYDN5mkUUzb6nr/+Mc/Dh/84AejgALpmxVPCcUjkbViIA0Up+p6GUYA0QvcYUIHtdZ28HX1Vu13yNkM7rl2O7Er2SPXeJRYOmEwJLJWDGJURDjllFMeI1DIC73IKplEE7zNNtvEyYetkIiihFLmEdvef//9ja8kFI1E1gpB/yil0u677x7LJXm5mFRIpkFQQ/m5RA5GuDTvw8ngd1JKPfe5z43N6a3IWvWMiaFVvu6661JXzpiQyFohcH1lWyWV8rSqRpWypEjGdVW3Nd7FVMN2UN/VnSN2JsxohVjVZEXjS02ZaHWXE4pBImsFIAtrni/BvQSPdrY8M62ZKILwwcOsYW6uoWntgNQGf7um3YZ0r427jPQOAnOHuccJxSKRtWS48Vkm5RQZYFrgvAXzzWR1MPi3WiuJYTtIJGmPkzVuniDRiiuvvDK+Zi61xFhCsUhkLRksksXHlhzrN23dAJcHmskKXGLSQV04nUD4QJShVNNpKJueV/GtmVDqtg888EDjKwlFIJG1REjMcEX1mJqObxpEEcmaVrI6FGSEW1VMzfBauMHEGTfccEPj2cfD17jMklZFlJoSHkUia4lAHl01a6yxRpzeUFRW1fY4sXBGVlJGbXeEDZ1AsXTggQdG62rESye4jvV12PhbWmWKCfkhkbUkiEuJ6QkMTGLQU1qUfI/4npuaCfBZVJLCTiqmDBJH3GUjYbq1xn3729+O2WVxsO/pd5BbwmBIZC0JyiZcU6UaN3iRUE9VgsnURmJVZPX7u4FaKVu83E4g0QzrPBw8ElPJuhaDRNYSwN211JjwgEWSqBkniC/Eo3vuuWdXK8j6S0YZmtbNFQYtfaYvupb6Kq3eyB+JrCXA8DGJGx0sOlnGDYmgnXbaKR4U3O9uaF683AvmEUs2vfnNb05CiQKQyDpmSMicfPLJUVZIWzvI/N+8oD8W+VjX5llM7dC8eLnXDKhs2ZW/be7cuY1nE/JCIuuYQUggBnzDG97QMw7MC1RIxsJkYgsKqQMOOCCOd1m0aFF8rhPUgbPFy2effXbj2fbg+hqq5u8z0b/bgueEwZHIOkawPEQEEjFZP+g4wCqydFniR2aXBeSyfvnLX47PdYKYtnnxci8QRhiwRls8Z86cxrMJeSCRdYyQhSUrpKlV7hgXWuusLCDVFDlhu86aVjQvXraIuRuQm+ssJmaNyScT8kEi65gg4bLXXnvFVY0yq2LXcaFVwQRnnHFGbHI/9dRTG890RhaLZouXe4HllphyvXiX+50mSoyORNYxASkyV3Lci57akZVAn+Swn0RQp8XL3SBxpZH+2c9+dsx4l5FImzQkso4Bto4bMsYFnjdv3thHobQjK/XU5ptvHntW+0G7xcvdoHasq8cANsoms6RS7XU0JLIWDBbF4DMJF1nVvAeg9YN2ZDUbmD643yRQp8XL3cB9dhjMmDFjqOXPCY9FImvBICtkjbbaaqvSulIM+TbAW1N5hkyY4dEPHDqscevi5W7wPRJp6q7eA/9O1nV4JLIWBAkV7i5Jn1lFLEsvtVBR+PjHP/7IkO8MaqAyvNRG/brlRBHtFi93g010SjlWStoDm6b5D49E1oKAAN/5znfiTSrW6zTvqCzQ8mqBM/islzIpA8vcbvFyN2QjYExM1LTQaZRMQm8kshYE8Ro532qrrRaFB+MSQPQLXTjkjoOQVQNCu8XL3cD6eijlyAz7vtZp/wn9IZG1AMiEmv5nb4yWMYmdonpVh0VWOyXS7zSLqRVI12nxci9wwc1qUns1PXHcGfFJQCJrAaC9VRYxAUIiZ5wCiH7BhSWMoDIaZNFUt8XLvcDDEO/q9kkD1gZHImvOkEAxomXNNdeMvaASLGVbVaswlFssRm6G8acytfbf9AsHD5KusMIK0Y0eJGFENyyTTBvtd6ZSzmBIZM0RyhLWJhI/6FWl4qnCiBOLprTENddZgUBDSeWwww5rPNMbDh6JJp4DF3rQdZRiXhpjA9b6db8THkYia45ABmv+keP4449vPFs+2okigIUkjCALHAS8BX+fn0tKOEjyjNtsXyxd8vve975UyhkAiaw5gXto7QVLpVdVaaQq6ERWe2rIIHfZZZfGM/1BcojAYdVVV40KpUFnLolXdeXIRLduYE/ojETWnKB1TFmCFrbXvKJxoxNZJb+IHLjtw0AjALIPWopRAjIOVahANNJun07C45HImgNY1awlbLfdditNqdQJnchqkLe9NxtuuGFfAodWsKpKOO0WL/eCziMdSHpqZaXT+NLeSGTNAVQ5bnqTF8oYgNYLhBntyEpVRcjvkLn33nsbz/YPySLZ5HaLl/uBUg7rTJ+crGtvJLLmAD2hSjUEEIPUHccFpRLjZFrJahHyMcccE4X+w8oACSS40sPMk0JQ1pmyqdfA8YRE1pGh1UyiROymbNOPuH3cQAqHSGu9Nw+yEkiI0/sZD9MKr8euHBlp2uGq6aerhkTWEaBkofUs61WtolUF8WC7Q4S299xzz41dQf2Ma2kHriwVFAs5jCsrvrfaQ+sdEUlCZySyjoALL7wwCgPEqzKrdQPLRhhBFjmIiqkZOmqIHLTatVu83AsOEqUcEkSHHnc69by2RyLrkFDMd4Nx32QzBxG1VwnmGFvjQcwxLA4++OCYXOt3gkQrzCb2vawrsX/VOpSqgkTWIWERk7KFpFKv8ZxlY/78+fE1tmtpEzPaD2tPzbDIRqx2W7zcDawrEckee+wRVl555Wjt63r4FYlE1iHghjTNnlrJjVrFrppm7L777nG6ora4VnA76Xx33nnnxjODQ9mGl2HyRLfFy93Aml5xxRXRutINGzJXdgNE1ZDIOgQMyFZuMDWhtRxSRXQSRUA2qmXTTTdtPDMc1FpZ11HUW9xhSaZVVlklDVhrg0TWASDxwV0T43EdTZ6vQzKkG1mb98SOAhpfJaxei5e7gYrK7h1CC4cH9z01qT+KRNY+ofShH1OJws1vE5z/rwO6kdWiZbOYeApKT8PWicXEGgKEB6Mu3NKy94xnPCPuA0rKpkeRyNonnPBO+lmzZsWt4aZB1AXdyJo1yyvfGJU6iqdAhcTjGLWRQU6ADJHy6tJLL02lnAYSWfuENjCrI5ZccsmoWqqqAKIdupHV9AirHPMgq2XKklX9LF7uBdl2rjmrX6V2wzKRyNoHlDys9nfTy1Rqvq6irLATupFVfEkqyO08//zzR4oRjV61fKufxcu9IMQwGF157IILLmg8O91IZO0DCxcujBlTYn2ucN3cMkO+Nca3i7HVOOmCZWCPPfbY2Gs6LJSwDPTWp9pr8XIveF0UYtxqm+i879OORNYeUE7QKO2EpwN2Q9bJqoL6qjJIp0OGRRSLH3rooSPXjLUIcoX7WbzcC9573UJa+I4++ujK17OLRiJrD9C76qiR7GBhJxEGuymXEEaMKvVDfGqofhYv9wND1XTl+Hm6mqYZiaxdoGygm2aDDTaI/53Ump/yDUEDUoyaOMt225gAMWwnTzN4BAQX5g0bsFaXclkRSGTtAC6j9i9lGh0l416AnCdsCOBCdpLvkQtuu+22kRB5aHLJBgn7+1283Auy1Aas+Zl+9rQikbUD1FGd5LpqqjYAbVCQ7plkyOq1Aw9CFtfg7k7XDILbbrsttg3STg8j7G8Fa+9v8FkYmzqt1jWRtQ24u+p8TnLT95r3mtYRa6+9dtsh3xlMjKDJVUNGrlEF9Gq39NPqpMO2zbVC/Kv8xL2WJZ5GJLK2gY4P0jlT/ybhxuhWZ4Vsfw2ySqKNUr7JcM0118Qsrt+bBxyg6sEa1M1llimeNiSytsBNYbvaeuutFw444ICJ6PzoRVZupq13eaqzsjGngyxe7gUTGO3XsfHAZAt5hbqV0UZBImsLlB6I0T3Mw50ElEFWmmOEGmTxcj8w/tTMJw/knaae10TWFohRDRCj+pmUaQW9yMpCSQoh6xFHHBFj2FGBRH6m97Lfxcv9gMBDI/2MGTOihZ2miRKJrE0wj4j4QbxKgjcpp3YvsnIlieWRlZuZB1nB76Olpv7SCEFCOCocLPbs6Cleeumlh+6drSMSWRvg+iGpGbjGc07S0C6DuCWQFi9e3Hjm8ZDxXmmllaION6/stxKLbXMWL3Oz8ygLASutBu5wIWscdDFWXZHI2oDV+U5rH36dBRDtoMYqFu92ACnZ8CrI+vJqSZOsM6JV/ZZlz5NUrL+uHGUpQolJOlw7YerJyjVTBmB93Kxc4Wn44Fvh5ic31PQ96ILkbpBoIuynPRbD5uEKA+sqAai1j0ek3DbpmHqySlCYlLD88svH5Eoeips6gpCBiknSxhykvMD15Qovt9xysS81r4SQOJuEkqTRa6ZDrtr2vrwx1WRVTuAeEupTxkgq5VViqBskatSXkcp7khe4wtniZSqqYbbVdQM3m6xRv7ExqHlZ7ipiqsnqJNbRoQxgqv6kjr4kUCDW76ZMYgGVq5DVTZ/3ocW9tmrEqoy8s+w8Ihlno2G53ZOKqSWrE98UPkOlqWy4v5N6KlMSnXDCCV1dfNlwSTbJIFMe8i6JmAq5+uqrx6xwHqKLZujHFRd7EHV0arKvO6aSrOIdwnCZX9lEM28n2f3tVWcF8d+NN94YyzdFDNjOFi/rZCpitSOvwM83zaNbiarOmEqysqrWXpDC6eOcdPRDVu+JWBVZuZN5CSOaIeMu44y4ecPrtcLDrlljeCYRU0lWnSX2svhgNTZPOvohK29DGOBaHkfeiSAgzODJyA/k0dnTDHGwA1hb42677RanX0wapo6s4iU3CwGEtP801FT7IWsG15qhVMQQc6ojmXdD0Ir4+azrnDlz4md73HHHNZ6dHEwdWQ3d0g9pl8qwq/nrhkHIaowoFVMRKi5JKz97yy23DNdee23j2fzAM6Bm2mabbaK6yS6iScJUkVXHxjHHHBPHgxhtmVcnSNWh86XbpIhmbL311nHuVJ611mZYvCz7bhKHODlvEHcQYfgd9sVO0vjSqSKrmEaSo+4D0AaFA8qQ736mK1hoTHapHloEfAYGd3OFi1qLwWOSbDKxcVJ6kmFqyOrGIKejVJItLOJUryp6DfluBmuk9qyMUwR09Oy6667Rghc1qZCk8ayzzoqHzuzZsyem53UqyKqGqnZIQYOweQrVJw3WLFpSZbh2UbVnqrGNNtoo1kaLEjDccccdceO7VZaXXXZZ49l6YyrISuFi2jy3KK9pe5MKgniW1ZKqohq7iVC4wrLORTVOiFXnzZsXs88SWmLZug8TmHiysg6SSSbtkbxNqrqlG7iBSlT9yClJMNWfdSIVIYyAbPGy/AF5YFGgh+bWE7/o+Kl76DPxZGVVdWVwgYu8MYoGq+DgYTE8Bpnqd95558WSVT+TGiSWyPa4qEVOYLB4mUBCdrgoeL8WLFgQJ1XyFvIaLVMWJp6sJrirMxo6XedEA8so1qa4GnTp8SB1Vq6v0pbYvqjyDVi8TG3k9xQJGXBNDEbAEErUued1oskqhS9m2XHHHWOBfBBrVDUgqi3giGcM5yAHzyBk9R7JmBdNVj/b79ApU1TmGXgkpJMyw+rN7om6duVMNFmJ9MUrWr/yGtZVFjRZi/FMtFD2GKTNbBCyAnVXdsAVBa68bXOs+Mknn9x4thhk7X8rr7xyXBNS13UoE0lWLqOMo+kEivzm89Q9Eyje1hGDeCY6DKLMGZSsapN20hYhCWyGxcua0vXbFqnR9tlz7x1y4lfvZR3VaxNHVh+MLKBWLFbVDVF3sT7LoMgv7tLAfemllw5UAx2UrOL8TTbZpPCEHFdYLZQlL0ox1Qz1VsuyHOBGzdQNE0dWSh0KpWWXXTY2Ik/CmA8rGY0uQVZZTf8/iKcwKFn1syp1WQRVJIQmXGExuP8WDXtqvQ9mQ7tHiqojF4WJIqvEgdPaSe2m9u+8+ybLgBlKXFPDsiVKSCeNR3HDqYdaJ2FrW6e6qCTO3Llz+y7FENmzQEo+RYPkUKeP/uJx1EHNl/L7dthhhzB//vzGs/XARJGV4OHYY4+NloQlGiSuqzLUSJU5eAvIKitMuDBz5sxobf1X8sl6ynaHk/hdsohl6QfUS3pCHQJFv4dmCdsCwNoRSxQNf4/art9X1ESMojAxZHWT2lbGpdpss81iPa3uSaUMyCb+XmqppeJBJIOqc0jG1t+74oorRtLmJd9jpf1cwoWib+Zs8bLZv+PaMC9e3WmnnWJfMw+lLkKJiSGryQOGcXF/uXGTAokkky2Q0chUsaQyROYyusH1bvq6trA8hpGxdoT2hx566FjKHA4HS5KNY0GccdTDraNUg7fhri55jYkgqxuaC+h0tle1X3evDkAWpEFG8jxZ4WaYJ6Uk4evcyTx6RP0MQvu99957LH2/YnJtcz4/cfU4PCJ/o0w0AYj3tA7WdSLISv+r3MA9ZHUmCaycOiQy+vtaxR2aq7n9vq7gnxeUvrjZxBhFI1u8bG+NpNa4BPcSdGJ/HkkdZIi1J6uEwSmnnBKtjgFok9ZUrtapCYHAgzyv1UWke+VCKvZ3UgLJjtu7OohLO06ysqQOJX20unHGVRcXj+vEEjrJllcdtSfrTTfdFD9gc4Ok5ScNWrtoWlmAE088sfHso9h///2jUEKvrpEp7eDrxov2W2cFySolH6KSccBrM+hs1qxZsY48DrdUqc9hKJMufOKhVRm1JiuXkMWQhndC1l2p1AoZbplSiSVtfu0URW5wX1endHC1w6CiCDAjCVlloseBbPEydz7Pxcu9wP3VjWNXjqFyVUatyaqgzsVzKk7a2EnQLSLD7QbmlrZmepFP/dXXWdhO42qGIauyjSSTLfDjgPClqMXL3cCC88iMLpUT6HTgVQG1JasPk2vH4pCqTYoAohmmNkh+EEMoa7R22tAI8yqIIsxO6tSJMwxZlYRkSuUDxgWJJtY878XLvaDnVbJJ7Mr9J/KvYjtlbclKZZOVF+ooyu4HtLm6UmRJlW9awX2TWJOY6SYNHIasfh6ycsPH1f9Jq2sEj7WTmtPHWYIjTZX74A7LsA/SKDEu1JKsZIUUPKyqD3XSMsAZjFaRXGJpnPytkP1GRK7wlVde2Xj28UDofod8Z5BY0nljEqF4chzwORa5eLkbHAzCKtMQucTGt1at9lo7sjrxnPayo6yNdrhJhBuXhpWLy7q2ktH7QC4nuaQO2827EM+aWugG7BcsjVzAAQccUMhemm4ocvFyNwit1OvlAIhsqjawoHZkpTzxQeqcMNt2UkEzS+TAxdVx05o8EmdJOvn6kUce2bWGymoMaiWI6rfbbrsoxxt3SaPIxcvd4AC89dZb4+92fzmwqmRda0NWAb/YyQfJraOXrfPwq17Ql6tUQ9njv61lKYJ9caWvkxzmHQr4fQ4J1nXcKyiKXrzcDeJmkzhkpXlwVbrHakNWRBXDmKPDsjr1EooFxVQZZAVCBZ5DEYuXu4HbjbBiV1rlKm0arA1ZuYViMzGcksWkCSCqCEkepZSiJ0a0Q5GLl7uBB+fBY/H7JdiqkhepBVnVvbiCpGi6MyQ8JqVXdRw455xz4rjPQUsh9LJknGW0HBa9eLkXZMAl8NSxHVZVqDjUgqxKDpIdpvtRmEzLXtW8YLoES0VzOwgILWiOxzEfqRVc0SIXL/cDUkv9w0pkVVgRWnmyOuGI2alLxFA+xGRVB8MwogggPFFGQfQyUPTi5V5w71GOkSHaQjjOzHQ7VJqskkrcN6erE26cErRJwrBkNboTWfPskx0E41i83AuEErwLY2CsLSkTlSYrragBaAJ928AShsOwZJUFlmCaM2dOKXuCJHZoo3UWdVNoFQl/t3LhhhtuGJNNSmplobJkVaAmenCzmIRQ1sk6CRiWrAQCcgVcwbIyouNYvNwLGiocGEpJZQpxKktWNwf3i6xQcTpheAxL1rvvvjtm302MMCepDEjyFL14uReUjkzkYF11eikjloFKktWbY5aSE9XNMslKpXFAgkST/qCLpIUhe+65Z8wZlDWFI1u8rIxiCmJZoBLzXjg4xNJl5E4qSdY77rgjCqqRtYyC/KTBPGUlr2HiTt6NJJNkU1nQCK/8xLqVWQnQ4WXelWSTg2zcqCRZfSgmwu+7776lp8unHVUga7Z4mYKtzPtBnVqyiVijDKFI5chqtIe9qrShVEtV7NifJkjsIKv/lgU68GzxcpnlE1ZdKUftl9c37hi6UmSl9z388MPjWM3DDjtsooZ11xXGuiAJNVNZMLJnXIuXe8H4UuVE0zu0Jo4TlSIrS8qimixftw1fVYbMuvrgMEkR6jFkpSYqE+NavNwL3kP3pm4kFnacPa+VISsZoWybhUhGmJRRhJ9U0LaaFDFMVh1JZIMl/MoEUoxz8XI3KN1ojtCkTjAyLq16Zch60UUXxZqq2KQKoulJgg10gw75zkDFxIrYFl5m58m4Fy93A0uqBq3+jLB6bsdh7StBVoG6P9w0PaWaSRwrWiaGFUWAhJ+wZOeddy5NlJBh3IuXu0FW+uKLL47DEFj8cbRtVoKskgZGQNL/ltG7OOkYhaw+D0PTWNdFixY1ni0HGjnGuXi5F7jDiOr9FdsXPWCtVLLSehr0peBtVIvAvSz95yRjFLKqLZoiSRdb9tYD5CA9Hefi5W6gX3eArbvuulFDbcJkkfdvaWRVPzWh75hjjomuhIHVg4zKTOgfo5CV9NMOmixEKRtlLF7uBe+tWccSo0Xew6WRVcwhHjKqRRzSaU9LwugwrtTs4GGHZp900kmRrFXYfVvG4uVeEMtTWBmKrpWvKOtaGlkVl0nZDFRWX02ywuLARTvqqKMGHuuSgbROx8k49950Ak1uGYuXe4FE1jQTcsRh3+deKIWs6lJXX311tKp6VdVYk6ywODgIZdiHtUKyngan6S0tG/6GMhYv94J42toNE00MJy8CpZCVKyOrp/7HqgrUE6oLPaXECIccckjjmXIh9h734uVe8BrMabJ/SQxbhFZg7GSVVDr11FPjEGUNxU79ZFWrDdMFqZgkdaqAshYv9wKFmE4xXTm01HnrBcZOVul/pyJdZZUX1yY8CiW17bffPgpXqoAsOTnuxcv9wLxj+nZbDvOWRY6VrFnHgqL2gQceWJnkwKSDGzts8zmIEbO9N1Upr5W1eLkXNExIMukQOuKII3LtHBsbWaWzpbWN59hiiy1SV80Y4f22bGnYLGWmYpJkqopuW1KyrMXLvSBskIFnYfPc1TM2skoKUMKwqtLcCePDKKIIQHLWQh3RHOcqgFdW1uLlXpCHUe6izFPfzmsZ9VjI6o09++yz47BkWeAkgBgvRiWrm43STK3VsLAqQY9rGYuXe8Ecsb333jsKfvJSfo2FrNlIS1kyW8ESxotRyQoECGXNHuoGFr+Mxcu9wEBxz71nknPc9lFROFm9aGl2ek5p7Spl7qYFeZBVV4mCf9ljVVpR5uLlXmCkrP5QpjzrrLOi5R+lTFk4WXX4yyLSTjppEsaPPMiqJGFmbtkTI9qhrMXL/UDjAR2z7PCoSr3CySrA1qvKulaleD1tcLJLwoxCVhMjZIOrSNayFi/3A6Uu3TgSYTrLRnl9hZLVFHfyK5rJ6667rlIJgGmCOUpEBKOUN3x+LJidqVVD2YuXu0HJknepa4me+a677hpaXlsYWQX7smHGipIXpgFo5WFUIT9YUmUSvcO3auBelr14uRu8Ps3y5JEOlGHH4xRGVhPcJSTof9XDEuoN1kHZTe2wipvny1683A2sq+QXz8RUCc0rw3QL5U5Wsi9ifelqZL300kvTsO4JgJWbMq7czSrWyauweLkbHHDCkdVWW+2RAWuDIneyOjHUvLyoYcdfJuQLnwFd9iitiL6fMMK42FtuuaXxbHVQhcXL3SAEQVhGzB4nQolBa6+5ktXNQLnB3KurSqVXLTs3jbDu0UiWUWRvvtewMpl9CZ0qogqLl3uBC2z2sdGuljQP0oCQK1l9oLpqZsyYEU/htFe1GsijzipBdf7558eMprEqVUQVFi/3Ax1nRsDgyCBdTLmRVVC/YMGCqIWkKPFmVaVtadqRB1lBzLXWWmtVthGjKouXewFPNEXIYHud/XoBuZCVKoO0yuY3Ok0nb3J/q4O8yHrVVVfFmFWiqaqoyuLlXrCBjlhFJ1q/rYu5kJVVlfWVljYALaFayIusYiyyPiWcqqIqi5d7QTbYNAkHiyVX/SAXskoqWVyErFylhGohT7JKHmqsrirUg6uweLkXhIhqwpJNZlvxTHthZLI6vZwMfqkTN9VUq4e8yIoIYkK11qpCIqwqi5d7QQdaNmCtn6TdyGRVc5OGFjBXUeqVEOLeW5LPUecnSeC4uXhQVQbvrgqLl3uBdeW281bUX3sp/UYiqw9fTYvfLVBOXTXVxMKFC6OqZ9SkH+GBmq2yg4ViVU3g8ACqsni5F1hXySaeqZlS3caXjkRW+zKJp7VOiWeIIrha2qnaPXR+tDvddXS0u56lbrdmkH9PcNHue8wIalWGaCIgRG93vd8h5m4tM0kAdHpdHq2NCX6nk7HdtR66LZpPeen6xYsXt73W4/rrr39cltD3ew/bXe9hmFmzLtbvcDMoD7S73nvVbnYRcrf7HsIKlnXNNdeMryMrOSCxn9V6vYe/w2toJrbX6LW2u97DEPjWm9Z74We1u97DtMPs9WSLl5UQaYbbXe+zar5PfP50Ae2u9XAvtEoE/R3uHdsl2n2Pe641LDT9sPW9IubwWiXvdKp1wkhkNcjYB6f958QTTwzz5s2Lz2k2b/eg22weuOUDdNNzV8jEWq+XLaOaaYV5TuLj1us9JBd82M0gorb7td31ZuEScrRaHZMRdJm0+54ddtgh3mzN9TGHije93fUeprUjZwaxPnet3bUexuC4CZrhhjz88MPbXu+hXNGsUiJvc6B6ve2u5x4TErSC9eSWtV5vSqJY0CYFrz2TL9pa72e1Xu8hxvUamqWOXqPX2u56j7lz5z7uUFc2Em61u97Doduc/fU7vValpnbX+8ybkzo+f/XPdtd6uBfcE81wKPg5Em7tvsco0tbD0CHX+l5x2b2nOtT0vHbCSGT1QctkSZV7YwxEo3vUCrTKKqtEEvvQuSRIpAbmxWZwmtkRYi3DPvvsE69pfmh0dpO3gp9vNGbr9R5qva3WmPBc83u76+fMmRMXLrWS1d+23377tf0ejdzI2nwDspwOlnbXe1x44YWPUdW4sZCx3bUe/r7WIejZftJ213t4r5rJyjqxkJ3+Du87+Vsr3DDtPg8PB2i23jB7z5Tt/Kx21xs+0Fr49xq91nbXe0i2+FubwZPyWbW73kPmt5ms2eLlFVdcMVqs1us1qnPlM7CSDvnW67KH97D1YGNo3Dvu03bfw7q3jjFy/3uvCCLUWan9PPzbAd1tmsrICSYCbx846ZQTQ7CMsFlK2s3lw5SI4iJXsb1q0uFG567lkWwRD8oum0PcLb4qG1VbvEw45HBnOHgBDBeu4Amv0gHpM+qGkcnaDCetE42LkxV8nRiyh1wobqJT1gt24qQyz+BgoRx6rADi9PMQD7HUo5ZuwO/lskkoVpms4F4re/Gy34kXYm6D7YWCjJkxNDxRRq7fwem5krUVMpBcB25jNtaCttScV1MkuIZcEacgl8LJU8YbWieI5cSgJtHbGM/K9XoIS/KoswJ33+fHtWx2O6sIBwvXsozFyxlJ5Rm46Fxl4YO9st4/rv6gg8kLJWszNKTL5pnzKqB2Ay211FIxthXTioEE/M3ZzITHQ9iBKJIRTmnuaK8HYudFVhlRv78OZC1z8TKisqSUfQ7VZZZZJnqYVEu4MAzGRlanGheO6yR9zT8XU0hAySivtNJK8Y8iE+MaSGEP+0dNMjKyep8k0ryfvR6sa15kVaYRYzksWstXVYN7btyLl+VkNL+rcAgX3NtCQu2F3i8HxrAWfmxkbQYXwYvm/rqB+OyGIEtQWdHAbZFyV9Q+6KCDYplgVPXNpCAjq0e/o0HyJKuMtgkgM2fOHHjSwTjBqtrY7u+WbS168bKDQCKVJbXPSazs35dffnl83/N4r0ohazv4Y8S4CsnqtZJRklJISzvJkijI03sqaE9rVrlssvr9DlBhTJE3/zBQ9+SRcf3VLxHGwS/j6vXmvXiZhZQkJRaRxPJ7lDC913I1Pp88rXllyNoMfyB3S8nh3HPPjUOcuTFGdnhDtt5665i0EudSlrQqfSYZw5BV9lG9Mw+yCmHUFt38YjJudplwaFNciQWRhJpOFcJ/1TMJaIgZ8ly87IDyOaiJMiDGs/II1WLFxjzFIkKESpK1GQJ1bzCNpxPMqSkekPZGXjetAjSNsnqvslDZN1CRGIasQgwHXx43kKQSC4Ws3u+ykkwOdONuKbpkxxHUSBdiDkkliifZVuEWlziPxctZ2Qz5CTSIgYw/dQgg6Z133lloXFx5srbCyY64LC4JIYsrtlUaogphcSWuyM2yE26cKfuiMQxZHV55vQcsGZIiq6RJWXErHa9phjK9xriYa3TmmWe2FX94jaMsXlZSFKKJSdWXiRkcDlkVg5yVUSkatSNrM5ya6n7eRIoQNTWTKgT4WvbUchFXooGCygk7jje1SAxD1jzBurBOyHrUUUeVlvjze8WlKgisWrdDw30izzHo4uVMccSCG2Xj3uLNISm3e9zziWtN1lawutw9BPWGcn0kpwwb5yoRiBsGnUkf66igKpus4GaXYWXNypoiyGPSPLL88stHt7QfF7+fxcsqFRlJjVyl/PI9PDdJJDFws6Z4nJgosraCBXACzp49O77hpI+SLdxlHRFKQlyYTPpYpcxmJwxDVlbIQdYsph8Fuoco0Xgyg6pw8gJC8aoMk+83091t8TLycvGbZYEOevVkWgBhV3PXVBmYaLI2AyG5y/obuciK1T442WVJCW1eJiG4sZ3Sed3YeWMYssqmu9nymuNcBeuegbX0Gepm6RWX87okmZoXL/seMS6yi8Vld4kZCCmQVAmmKvOvp4aszXCq+nCzDn3xl4f4xwekNDHueKRfDEMUU/TzKt1AlcgqydjJWraD5JDXjbjgYCZcUNN3D0hC+bqm8LIy3Z0wlWQVl2TSR0VyrpxMopKQE1UchLiSCRqx1XKrEt9y/5QIPPotUTmYXJ+XkIQMlJuodqmrp0yosRI/EGpk1rIbssXLmsb1tCKpnlfWVHO7zxpJvc9VayqZSrI2wwciVhXTSRxIPkhYsETcZQoYcS53S7JBrdd1PswykEk1PfotxyD1INf3gswrhRkrVDZZ/W1GC/msWidrtIOFUFxhYRDSEtfLabCuDu0i66SjYurJ2grE5Rr54CSoxCymTxjdoSRE/qgYLtt80kknxWREWbXGssDLkLjjgciYli39ZC2RTpN5O7JliiPZY2IaHoE6Ka/J6+fKV5mkGRJZe4BLJI1vIJyCuvLPtttu+0g6nxulV5GCigvVOo5kEoGcRCfcR8KIPPW2w8DkBUoink9zDM2bkHsgXCCgcNjykGSF1U61ZNaBpBmmm6x/ejA8MP8zMRscH6ddH+66v3NSwQktM4i4hBaGw/k+CioCbokJ2USEZpGpaepQDhoUXE8N1chqHnHZrYxCGAIJemAyQ6+Pek3ThzlMiMwbkoxCUuWZssKYUTDdZP3NveFHp28bllhiiYcfW3w8XHNn/5aRu4yQJl6o22ZCDKJuahcW16muZCQRwupOAnnd6CyYJJyMehXWKyrJyewLWSiavPcE9vTC8g+8ImW5qpbk+kEi6whkbYYbWNGce8jiZtJHrrJTnfqFPpXFpaCSpOo3m1tV5Nl6Nwq45d5zWWEiBmtHvedIygNieScBiaw5kbUZsq7ZGBtuotYpLrKYyY1kVnG2jVyCys0u7qtaqaAXKMJkUvtZqpQ3MjGDbDRBi/eU4kguwQHi0Cw7ls4biawFkLUdMumj5gIxruylspB/c6EV9cVZLG6VFVTNcAARGYyzfJORlBtufIquq2yyiEkjyjeTRtIMiaxjImszWF03muwld029T0cIAnOfZVjFwsoNykKymlWE2ULI6iAqGhlJeSGSREpp5nZ57yT1hBZ1yuwOg0TWEsjaDESkLlKzRVy1S7I3fZoaDsS5vbaLlQUJNR1NiFI0WmWBiMpLoVqq6mGWNxJZSyZrpqDSZ0ts4OYTg4m7KG2ohFhd9UFTEVgV1rYK8a0plJRARS4tFg8rwWSyQN4HIb6mC5bUe1e3WH9YJLKWTNZWyCqLuXQJcS+VHDRMk9MR5Huo6dLmSlBpEytLQSQDS0vNpc+7bsnbUBaSUdeO529WllHjViqqY510VCSydiDrQwsvCp9+3zZRlpY9Nn7tG8M7Lloc/vCXfDS2vcBqsLaZ9DFbD2huL72yUoXsJ3WOhvubb755rMkVLWVKJa0LsYYFd1ayigeBpA4CtVKkzVZgTiNJMySytpL1pi+HS44/PLz91c8Lay//349+7V+PJzz5P8P/PW+LsP0OJ4er7nkgjLsPx81s6iPrQpBuM55sqHIQIQZBu+Fx4lyN9XlM8usGr0MWVrwtGTYsHEgaKLIRotz/ZlmgpFLdx/HkgUTWZrI+3Q3/8vCCWUuF/2oi6eMfq4cN3312+Np9D4UyZQ2K/eYsK/zbQqaeK7Yjr+M2I24mfXRd3v2ZNgKoHSs9DdP/K/YW7yKp7K5kFbLSWTtspt2StiKRtZmsjzyeGmY9d5Pwxt0amuF/PXbfZbuw8WpN18x4WdjnzJvCol9VIxPJ/UUeA9K5jZn0kdzOf/0/Evi67DLp3ahEcFiIJY3lVCPuF76PVWaRufC8AoeM7hmuvsxvXu18k4RE1layLrtueOFr9gzHf3Z+WNQ0g+uPD9wTrjluy/CKVZcI//aEh6+dueWx4ez5Pw1VKxxwl0kfxZSmXljjYFynuJvFpToyDVKCSmP6KP25DgNSSpa7F8S1GUkNsMtcd5ZZx1LZrXZVRyJrM1mXWTu88IDzwlcXtc8I//nXi8MtH10rLPfvTwhPdP1ybw2Hf35hqPoWHiUOpCR9JMSw0YBF5HZyP8WGYmCjTpRKWOl+Gw4kuzw6lW/8HA0Mkl9IutVWW0U33eGhCwZ5666RHhcSWVsTTN1KN3/7l6m957Sw1dL/EZ4Sresrw16nXB/uqlkjDULqFBLjsowyujKvLK8apnGtsrKy0FzWblZXd0s2s6gZ5JJiUu6x8Z2UTrTEkmFKMAsWLEhJowGRyDoIWYOb9q7wyVc+Jcz8T9+zatj6Q5eEW0avWpQGZNS8zcopl6yzzjpRhEEUTxxPkCBTa0A68rVaQRvl6Ju53ICkYk7xs/ZApSXdOdrXlJ3UhVPSaDgkso5E1iXCS/c9PVxVzUGIQ4Em2fgTUkekzaY+SlJRLGVTATOccMIJkeB6SEEGl7vL1V166aWjNZXtVdrp17VOaI9E1oHIStb29/DlPZ8aVvp/k0lWhOKeKvOo6YplZXvFt6SP9pz6t15RWl21XqoqmVyk1L/rGmIGREZe1lh2d1pkgUUhkXUgsmpbuyecuvn/hGX/ezLJ2gwurWQTwrG4Jl5QF7GyWZcQKaDFykZ5sqJcaSQV807KZIyqIJF1ILKK164J713uv8L/xQTTimHLD3whzK/GwPZCkbWoIe7tt98elxbTBquT6hbSLpfFt+ZUJZLmj0TWQcj699+G8PPTwlb/8x/hKfF7NgyzP3lNuHM6OrQeB8RFTgkqpRlJqDrPOKo6ElmbyUpu+JFLw/wftpvZ87fwp4fuCNce9tIw69+fGP7N9WvsHY669LthMucSJFQNiazNZI0E3Cxsu8+x4ZKvfy/c94ig5q/hDw9+L1x94jvCG1ZcIjypoWBaabczwhdvm4xhXAnVRyJrE1mf9rSnhSc96Un/+veS4Tmb7R4OOP70ODfp9NM/FY4/cp+w+QpNpF5h/bD/uQvDXTWusSbUC4msTWTdYPO3hI1fsEZY5n+f/Cgp2z3+95lh/YM/HxYu7r3ANyEhLySyNpF1i4/fGq6/4Iiw3/YvDk+f+bTw1Cc3k/QJ4YlPemqYufo6Ye3tTw3X/vjBUtvjEqYP003W3/0k3HfRXnFRkcfsz9wR7o4h6C/DN06bE3Z70cPPP/xYPayz/uxw6o9C+HPq3kooAdNN1oSEGiGRNSGhJkhkTUioCRJZExJqgkTWhISaIJE1IaEmSGRNSKgJElkTEmqCRNaEhJogkTUhoSZIZE1IqAkSWRMSaoJE1oSEWiCE/w/e9u/QS6ra5wAAAABJRU5ErkJggg==;" vertex="1" parent="7">
                    <mxGeometry x="410" y="130" width="208.69" height="230" as="geometry"/>
                </mxCell>
                <mxCell id="29" value="The volume is 36 mm&lt;span style=&quot;font-family: arial, sans-serif; font-size: 16px; text-align: start;&quot;&gt;³&lt;/span&gt;" style="text;html=1;align=center;verticalAlign=middle;resizable=0;points=[];autosize=1;strokeColor=none;fillColor=none;fontSize=18;" vertex="1" parent="7">
                    <mxGeometry x="10" y="420" width="200" height="40" as="geometry"/>
                </mxCell>
                <mxCell id="30" value="mm" style="text;html=1;align=center;verticalAlign=middle;resizable=0;points=[];autosize=1;strokeColor=none;fillColor=none;fontSize=18;" vertex="1" parent="7">
                    <mxGeometry x="260" y="195" width="50" height="40" as="geometry"/>
                </mxCell>
                <mxCell id="31" value="mm" style="text;html=1;align=center;verticalAlign=middle;resizable=0;points=[];autosize=1;strokeColor=none;fillColor=none;fontSize=18;" vertex="1" parent="7">
                    <mxGeometry x="260" y="245" width="50" height="40" as="geometry"/>
                </mxCell>
                <mxCell id="32" value="mm" style="text;html=1;align=center;verticalAlign=middle;resizable=0;points=[];autosize=1;strokeColor=none;fillColor=none;fontSize=18;" vertex="1" parent="7">
                    <mxGeometry x="260" y="300" width="50" height="40" as="geometry"/>
                </mxCell>
            </root>
        </mxGraphModel>
    </diagram>
</mxfile>